<?xml version="1.0" encoding="utf-8"?>
<!-- Generator: Adobe Illustrator 19.2.1, SVG Export Plug-In . SVG Version: 6.00 Build 0)  -->
<svg version="1.1" id="layer" xmlns="http://www.w3.org/2000/svg" xmlns:xlink="http://www.w3.org/1999/xlink" x="0px" y="0px"
	 viewBox="0 0 652 652" style="enable-background:new 0 0 652 652;" xml:space="preserve">
<style type="text/css">
	.st0{fill:#611C70;}
</style>
<path class="st0" d="M257.5,310.5h30.2v-22.1h5.7v49.9h-5.7v-22.4h-30.2v22.4h-5.7v-49.9h5.7V310.5z M319.3,288.4h-5.7v49.9h5.7
	V288.4z M376.4,293.2c-4.6-3.2-10.3-5.5-17.9-5.5c-10.4,0-18.9,5.3-18.9,14.8c0,8.3,6.2,12.2,14.7,13.2l5,0.6
	c7.9,0.9,12.1,3.3,12.1,8.2c0,6-6.1,9.1-13.8,9.1c-6.5,0-13-2.6-16.4-5.6l-3.1,4.6c4.7,3.8,12.4,6.4,19.6,6.4
	c10.8,0,19.7-5.1,19.7-15c0-8.6-7.3-12.1-15.6-13.1l-4.7-0.6c-7.8-0.9-11.5-3.5-11.5-8.1c0-5.6,5.4-9,12.9-9c6,0,11,1.9,15,4.7
	L376.4,293.2z M429.1,288.4h-40.4v5.4h17.3v44.5h5.7v-44.5h17.3V288.4z M487.8,313.4c0-15-10.9-25.7-25.8-25.7
	c-14.8,0-25.8,10.7-25.8,25.7c0,15,10.9,25.7,25.8,25.7C476.9,339,487.8,328.3,487.8,313.4 M442.3,313.4c0-12,8.6-20.1,19.7-20.1
	c11.2,0,19.8,8.1,19.8,20.1c0,12-8.6,20.1-19.8,20.1C450.9,333.5,442.3,325.4,442.3,313.4 M502.2,288.4v49.9h5.7v-21.7h6.3
	l17.6,21.7h7.1l-17.9-21.7h0.8c10.7,0,17.4-5.5,17.4-14.1c0-9-6.2-14.1-17.4-14.1H502.2z M521.7,293.8c7.5,0,11.5,2.9,11.5,8.7
	c0,5.8-4,8.9-11.5,8.9H508v-17.6H521.7z M563.3,288.4h-5.7v49.9h5.7V288.4z M625.3,298c-3.9-6.4-11.7-10.3-20.3-10.3
	c-14.8,0-25.8,10.7-25.8,25.7c0,15,10.9,25.7,25.8,25.7c8.6,0,16.1-3.8,20.2-10.1l-4.6-3.4c-3.4,5-9,8-15.6,8
	c-11.2,0-19.8-8.1-19.8-20.1c0-12,8.6-20.1,19.8-20.1c6.6,0,12.3,3.1,15.6,8L625.3,298 M257.5,361.1h-5.7V411h5.7v-22.4h30.2V411
	h5.7v-49.9h-5.7v22.1h-30.2V361.1z M358,386.1c0-15-10.9-25.7-25.8-25.7c-14.8,0-25.8,10.7-25.8,25.7c0,15,10.9,25.7,25.8,25.7
	C347,411.7,358,401.1,358,386.1 M312.4,386.1c0-12,8.6-20.1,19.7-20.1c11.2,0,19.8,8.1,19.8,20.1c0,12-8.5,20.1-19.8,20.1
	C321,406.2,312.4,398.1,312.4,386.1 M411.8,361.2H406v29.9c0,10.4-6.3,15.2-14.8,15.2c-8.5,0-14.8-4.7-14.8-15.2v-29.9h-5.7v30.4
	c0,13.5,9.1,20.2,20.5,20.2c11.4,0,20.6-6.7,20.6-20.2V361.2z M461.9,365.9c-4.6-3.2-10.3-5.5-17.9-5.5c-10.4,0-18.9,5.3-18.9,14.8
	c0,8.3,6.2,12.2,14.7,13.2l5,0.6c7.9,0.9,12.1,3.3,12.1,8.2c0,6-6.1,9.1-13.8,9.1c-6.5,0-13-2.6-16.4-5.6l-3.1,4.6
	c4.7,3.8,12.4,6.4,19.6,6.4c10.8,0,19.7-5.1,19.7-15c0-8.6-7.3-12.1-15.6-13.1l-4.7-0.6c-7.8-0.9-11.5-3.5-11.5-8.1
	c0-5.6,5.4-9,12.9-9c6,0,11,1.9,15,4.7L461.9,365.9z M515.2,405.6h-29.4v-17.1H514v-5.3h-28.2v-16.7h29v-5.4h-34.8V411h35.1V405.6z
	 M569.4,365.9c-4.6-3.2-10.3-5.5-17.9-5.5c-10.4,0-18.9,5.3-18.9,14.8c0,8.3,6.2,12.2,14.7,13.2l5,0.6c7.9,0.9,12.1,3.3,12.1,8.2
	c0,6-6.1,9.1-13.8,9.1c-6.5,0-13-2.6-16.4-5.6l-3.1,4.6c4.7,3.8,12.4,6.4,19.6,6.4c10.8,0,19.8-5.1,19.8-15
	c0-8.6-7.3-12.1-15.6-13.1L550,383c-7.8-0.9-11.5-3.5-11.5-8.1c0-5.6,5.4-9,12.9-9c6,0,11,1.9,15,4.7L569.4,365.9z M185.1,237.2v22
	h-20v-22h-32.3v22h-20v-22H80.5v22h-20v-22H25.3l0,21.9l10.3,22.7l0,129.1h24.9V288.4h24.9v17.7h10.6l26.7-21.5l26.7,21.5h10.6
	v-17.7h24.9V411h24.9V281.9l10.3-22.7l0-21.9H185.1z M122.8,319.2l-37.4,31.1l0,60.7l24.9,0l0-37c0-8.3,5.8-14.3,12.5-14.3
	c6.6,0,12.5,6,12.5,14.3l0,37l24.9,0l0-60.7L122.8,319.2z"/>
</svg>
